<svg xmlns="http://www.w3.org/2000/svg" id="Layer_1" viewBox="0 0 234 175"><defs><style>.cls-1{fill:#fff}.cls-1,.cls-3,.cls-8{fill-rule:evenodd}.cls-3{fill:#2ed06e}.cls-5,.cls-6{stroke-width:1.75px;fill:none}.cls-5{stroke:#9debd7}.cls-6{stroke:#60debe}.cls-8{fill:#ffb619}.cls-9{mask:url(#mask)}.cls-15{fill:#b6bee9}.cls-16{fill:#8797b2}.cls-17{fill:#ffd375}</style><mask id="mask" width="233.1" height="174.4" x="0" y="0" maskUnits="userSpaceOnUse"><g id="b"><path id="a" d="M0 174.4h233.1V0H0z" class="cls-1"/></g></mask><mask id="mask-4" width="236.1" height="174.4" x="-2.1" y="0" maskUnits="userSpaceOnUse"><g id="b-4"><path id="a-4" d="M-2 174.4h236V0H-2z" class="cls-1"/></g></mask></defs><path d="M219.6 109.9a106.6 106.6 0 0 1-13.9 52.7l-185.9.6A107 107 0 1 1 219.6 110" style="isolation:isolate" fill="#dbf4fe" fill-rule="evenodd" opacity=".6"/><path d="M13.9 45.5c-1.7 1.2-1 4.3-.7 5.7.1.7.4 2-.4 2.7-3.5 3.3-5.9 8.8-4 13.1 1 2.2 4 3.3 6 4.5 3 1.8 3.6 6 2 8.7-2 4-3.6 9-1.1 13.1 2.6 4.5 8.8 7 14 7.5a12.8 12.8 0 0 1 10.2 6c-.7-9.7 5.8-14.8 6.3-19.8.5-5.9-4.2-12.6-9.3-14.2-2.6-.8-3.5-3.2-3-5.6a18 18 0 0 0-.4-8.1c-1.3-3.8-5.2-6.4-11.3-8a4.6 4.6 0 0 1-2.3-2.1c-2.6-3.8-6-3.4-6-3.4" class="cls-3"/><path fill="#60debe" stroke="#2ed06e" stroke-width="1.8" d="M38.7 103.4c1.7 4.2 4.4 13.5 4.4 13.5"/><path d="M60.8 39c1.7.8 1.8 4.1 1.8 5.6 0 .7 0 2.1.9 2.7 3.8 2.6 7 7.8 6.2 12.4-.5 2.4-2.8 4.1-4.4 5.7-2.3 2.3-2 6.6 0 9.1 2.7 3.6 5 8.4 3.7 13-1.4 5-6.5 8.7-11 10.2a11.6 11.6 0 0 0-7.9 8c-1.4-10-8.2-14-9.7-18.9-1.7-5.8 1.1-13.4 5.4-16 2.2-1.3 2.5-3.9 1.6-6.3a20.7 20.7 0 0 1-1.3-8.2c.3-4 3.3-7.5 8.4-10.2a4.4 4.4 0 0 0 1.6-2.5c1.5-4.4 4.7-4.6 4.7-4.6" class="cls-3"/><path d="M16 49.5a322.4 322.4 0 0 1 21.3 50.2M15.8 64a20.3 20.3 0 0 1 9.4 3.8s0-4.4 2.4-7" class="cls-5"/><path d="M23.6 87.5c3.7-.3 9.7 1.8 10.6 3.4a14.7 14.7 0 0 1 5.6-8.7" class="cls-5"/><path d="M59.6 43.3c-5 19.4-6.9 37.4-8.6 54.6M63 58a17.5 17.5 0 0 0-7.7 5.6s-1-4.5-3.6-6.8" class="cls-6"/><path d="M60.8 83.1c-3.4.5-8.4 3.7-8.8 5.4a15.7 15.7 0 0 0-6.9-7.7" class="cls-6"/><path fill="#9debd7" stroke="#2ed06e" stroke-width="1.8" d="M50.5 102c-.6 4.5-1.2 14.5-1.2 14.5"/><path d="M63 149.6H27.5a4 4 0 0 1-4-4v-35.3h43.7v35.3a4 4 0 0 1-4 4" class="cls-8"/><g class="cls-9"><path fill="#485cc7" fill-rule="evenodd" d="M75.2 149.5h23.5V16.6H75.2z"/></g><g class="cls-9"><path fill="#00b9ff" fill-rule="evenodd" d="M160.3 150.4l-23.5 1.8-11.3-146 23.6-1.7z"/></g><g class="cls-9"><path fill="#37517e" fill-rule="evenodd" d="M98.7 149.5H128V40.4H98.7z"/></g><g mask="url(#mask-4)"><path d="M163.4 149.4H234v-21.8h-70.6z" class="cls-8"/></g><g class="cls-9"><path fill="#a8aaac" fill-rule="evenodd" d="M27.6 174.4h11v-8.7h-11zm160 0h11v-8.7h-11zm36.7-8.7H2l-2-16.3h226.3z"/></g><path d="M75.2 28.3h23.5v3.3H75.2z" class="cls-15" transform="rotate(180 87 29.9)"/><path d="M75.2 33.8h23.5v3.3H75.2z" class="cls-15" transform="rotate(180 87 35.4)"/><path d="M105.3 45.5h15.6v2.2h-15.6z" class="cls-16" transform="rotate(180 113.1 46.6)"/><path d="M105.3 50.4h15.6v2.2h-15.6z" class="cls-16" transform="rotate(180 113.1 51.5)"/><path d="M105.3 54.6h15.6v2.2h-15.6z" class="cls-16" transform="rotate(180 113.1 55.7)"/><path d="M172.2 136.8h15.6v2.2h-15.6z" class="cls-17" transform="rotate(-90 180 138)"/><path d="M167.3 136.8h15.6v2.2h-15.6z" class="cls-17" transform="rotate(-90 175.1 138)"/><path d="M163.1 136.8h15.6v2.2h-15.6z" class="cls-17" transform="rotate(-90 170.9 138)"/><path d="M45.2 88.8h83.5v3.3H45.2z" class="cls-15" transform="rotate(-90 87 90.5)"/><path fill="#fff" d="M100 59.1h83.5v3.3H100z" transform="rotate(-95 141.8 60.7)"/></svg>
